<svg width="48" height="31" viewBox="0 0 48 31" fill="none" xmlns="http://www.w3.org/2000/svg">
<path d="M23.8876 26.2357C23.9946 24.9266 24.198 23.4673 24.4977 21.8577C24.8187 20.2267 25.1826 18.5635 25.5893 16.8681C26.0174 15.1513 26.4776 13.4773 26.9699 11.8463C27.4836 10.2153 27.9973 8.71305 28.511 7.33956C29.0462 5.96608 29.5599 4.81793 30.0522 3.89512C29.0033 4.75355 27.9759 5.80512 26.9699 7.04984C25.9639 8.2731 24.99 9.59294 24.0482 11.0093C23.1278 12.4043 22.2502 13.7885 21.4154 15.162C20.602 16.514 19.8635 17.7587 19.2 18.8962C18.5365 20.0336 17.9692 20.9564 17.4983 21.6646C17.1559 22.1796 16.7278 22.8235 16.214 23.5961C15.7003 24.3686 15.101 25.1841 14.4161 26.0426C13.7311 26.901 12.9498 27.7058 12.0722 28.4569C11.2161 29.208 10.2635 29.8197 9.21472 30.2918C8.16588 30.7639 7.02074 31 5.77926 31C4.51639 31 3.45686 30.721 2.60067 30.163C1.74448 29.6265 1.09164 28.9183 0.64214 28.0384C0.214047 27.1585 0 26.2357 0 25.27C0 24.2613 0.214047 23.2849 0.64214 22.3406C1.07023 21.3749 1.63746 20.4843 2.34381 19.6687C3.07157 18.8532 3.88495 18.1665 4.78395 17.6085C5.70435 17.0505 6.64615 16.6642 7.60936 16.4496C7.69498 16.4282 7.7699 16.4174 7.83411 16.4174C7.98395 16.4174 8.05886 16.4818 8.05886 16.6106C8.05886 16.675 7.94114 16.7715 7.70569 16.9003C5.88629 17.8875 4.52709 19.1322 3.62809 20.6345C2.7291 22.1367 2.2796 23.6175 2.2796 25.0768C2.2796 25.8924 2.46154 26.6435 2.82542 27.3302C3.1893 28.017 3.69231 28.5535 4.33445 28.9398C4.97659 29.3475 5.71505 29.5514 6.54983 29.5514C7.68428 29.5514 8.72241 29.2939 9.66421 28.7788C10.606 28.2852 11.4729 27.6199 12.2649 26.783C13.0569 25.9675 13.806 25.0768 14.5124 24.1111C15.2401 23.1239 15.9358 22.1582 16.5993 21.2139C17.0274 20.6345 17.5411 19.8512 18.1405 18.864C18.7398 17.8553 19.414 16.7394 20.1632 15.5161C20.9338 14.2714 21.7472 12.9945 22.6033 11.6854C23.4809 10.3763 24.3906 9.11007 25.3324 7.88681C26.2742 6.66355 27.2268 5.55832 28.19 4.57113C29.1746 3.58394 30.1592 2.80062 31.1438 2.22118C31.3793 2.07096 31.5933 1.96365 31.786 1.89927C32 1.83489 32.2997 1.8027 32.6849 1.8027C32.9418 1.8027 33.0381 1.88854 32.9739 2.06023C32.9097 2.21045 32.8027 2.39287 32.6528 2.60748C32.1605 3.3586 31.6468 4.36726 31.1117 5.63344C30.598 6.87816 30.0843 8.29457 29.5706 9.88266C29.0783 11.4708 28.6074 13.1232 28.1579 14.8401C27.7084 16.5569 27.3017 18.2738 26.9378 19.9907C26.5739 21.6861 26.2849 23.2634 26.0709 24.7227C28.1258 21.01 30.1806 17.6407 32.2355 14.6147C34.3117 11.5888 36.3451 8.98131 38.3358 6.79231C40.3478 4.60332 42.285 2.90793 44.1472 1.70613C44.4468 1.38422 44.8642 1.01938 45.3993 0.61163C45.9344 0.203877 46.4482 0 46.9405 0C47.2401 0 47.4863 0.0858422 47.6789 0.257527C47.893 0.407753 48 0.600899 48 0.836967C48 1.07304 47.8502 1.3413 47.5505 1.64174C47.2722 1.92073 46.8655 2.14607 46.3304 2.31776C46.1806 2.36068 46.0094 2.41433 45.8167 2.47871C45.6455 2.52163 45.4528 2.56455 45.2388 2.60748C44.3398 3.9595 43.3445 5.70855 42.2528 7.85462C41.1826 9.97923 40.198 12.3399 39.299 14.9367C38.8067 16.3745 38.3358 17.8553 37.8863 19.379C37.4582 20.8813 37.2441 22.2762 37.2441 23.5639C37.2441 24.036 37.3298 24.4867 37.501 24.9159C37.6722 25.3451 37.9933 25.5597 38.4642 25.5597C39.0207 25.5597 39.6308 25.2593 40.2943 24.6584C40.9579 24.036 41.6107 23.242 42.2528 22.2762C42.895 21.3105 43.4301 20.2911 43.8582 19.2181C44.115 19.2181 44.2435 19.3146 44.2435 19.5078C43.7298 20.6881 43.1197 21.8363 42.4134 22.9522C41.7284 24.0682 40.9686 24.9803 40.1338 25.6885C39.3204 26.4181 38.4642 26.783 37.5652 26.783C36.8589 26.783 36.2809 26.5254 35.8314 26.0104C35.4033 25.4953 35.1893 24.7335 35.1893 23.7248C35.1893 22.8664 35.3284 21.8148 35.6067 20.5701C35.9064 19.3039 36.3023 17.9412 36.7946 16.4818C37.3084 15.001 37.8649 13.5095 38.4642 12.0073C39.2348 10.1402 39.9839 8.50917 40.7117 7.11423C41.4395 5.69782 42.1137 4.51748 42.7344 3.57321C40.9579 4.98962 39.1278 6.8567 37.2441 9.17446C35.3819 11.4708 33.509 14.1104 31.6254 17.0935C29.7418 20.0765 27.8689 23.3063 26.0067 26.783C25.8355 27.1049 25.5679 27.2873 25.204 27.3302C24.8615 27.3946 24.5512 27.3302 24.2729 27.1371C23.9946 26.9654 23.8662 26.6649 23.8876 26.2357Z" fill="#F9ECD7"/>
</svg>
