<svg width="26" height="27" viewBox="0 0 26 27" fill="none" xmlns="http://www.w3.org/2000/svg">
<path d="M9.39834 27C7.25486 27 5.48236 26.6951 4.08086 26.0853C2.69996 25.4755 1.66944 24.6764 0.989298 23.6881C0.329766 22.6998 0 21.6484 0 20.5339C0 19.2722 0.319461 18.1262 0.958383 17.0958C1.5973 16.0654 2.43203 15.1717 3.46255 14.4147C4.51367 13.6577 5.66786 13.0584 6.92509 12.6168C8.18232 12.1752 9.41895 11.9229 10.635 11.8598C9.56322 11.4603 8.68728 10.9136 8.00714 10.2196C7.3476 9.50467 7.01784 8.72664 7.01784 7.88551C7.01784 7.02337 7.27547 6.20327 7.79073 5.42523C8.3266 4.62617 9.03765 3.9007 9.9239 3.24883C10.8101 2.57593 11.8098 1.99766 12.9227 1.51402C14.0563 1.03037 15.2311 0.662384 16.4471 0.410047C17.6631 0.136682 18.8379 0 19.9715 0C21.8058 0 23.2691 0.315421 24.3615 0.946262C25.4538 1.5771 26 2.38668 26 3.375C26 4.27921 25.5157 5.1729 24.547 6.05608C23.5989 6.93925 22.2798 7.57009 20.5898 7.9486C20.26 8.01168 20.0436 8.04322 19.9405 8.04322C19.7138 8.04322 19.6005 7.9486 19.6005 7.75935C19.6005 7.69626 19.6314 7.65421 19.6932 7.63318C19.7757 7.59112 19.9405 7.52804 20.1879 7.44393C21.4039 7.02337 22.3726 6.43458 23.0939 5.67757C23.8153 4.89953 24.176 4.07944 24.176 3.21729C24.176 2.48131 23.8256 1.89252 23.1249 1.45093C22.4447 0.988317 21.4142 0.757009 20.0333 0.757009C18.7967 0.757009 17.5497 0.935747 16.2925 1.29322C15.0353 1.6507 13.8811 2.15537 12.83 2.80724C11.7788 3.45911 10.9338 4.20561 10.2949 5.04673C9.65596 5.88785 9.3365 6.80257 9.3365 7.79089C9.3365 8.50584 9.54261 9.08411 9.95482 9.5257C10.367 9.96729 10.8926 10.3248 11.5315 10.5981C12.1704 10.8505 12.83 11.0607 13.5101 11.229C14.2109 11.3762 14.8498 11.5444 15.4269 11.7336C15.633 11.7967 15.7669 11.8808 15.8288 11.986C15.8906 12.0911 15.9215 12.1963 15.9215 12.3014C15.9215 12.5748 15.7669 12.8061 15.4578 12.9953C15.1692 13.1846 14.757 13.2792 14.2212 13.2792C13.8914 13.2792 13.5204 13.2792 13.1082 13.2792C12.7166 13.2582 12.2941 13.2477 11.8407 13.2477C11.2017 13.2477 10.5216 13.2792 9.80024 13.3423C9.09949 13.4054 8.3266 13.5736 7.48157 13.847C6.40983 14.1834 5.47206 14.7091 4.66825 15.4241C3.88506 16.139 3.27705 16.9276 2.84423 17.7897C2.41141 18.6519 2.19501 19.5035 2.19501 20.3446C2.19501 21.4381 2.44233 22.4264 2.93698 23.3096C3.43163 24.1928 4.21482 24.8867 5.28656 25.3914C6.3583 25.9171 7.77011 26.1799 9.522 26.1799C11.1296 26.1799 12.6857 25.9696 14.1903 25.5491C15.6948 25.1285 17.086 24.5923 18.3639 23.9404C19.6417 23.2675 20.734 22.5736 21.6409 21.8586C22.3829 21.2488 22.9806 20.6285 23.434 19.9977C23.908 19.3668 24 18.9626 24 18.5C24 17.9112 23.7432 17.4112 22.9394 17.285C22.7333 17.264 22.6302 17.2009 22.6302 17.0958C22.6302 16.9276 22.7745 16.8435 23.063 16.8435C23.6607 16.8435 24.1863 17.0537 24.6397 17.4743C25.1138 17.8738 25.3508 18.3785 25.3508 18.9883C25.3508 20.1869 24.5161 21.4486 22.8466 22.7734C21.8367 23.5935 20.6001 24.3189 19.1367 24.9498C17.694 25.5806 16.1276 26.0748 14.4376 26.4322C12.7681 26.8107 11.0884 27 9.39834 27Z" fill="#F9ECD7"/>
</svg>
