<svg width="344" height="344" viewBox="0 0 344 344" fill="none" xmlns="http://www.w3.org/2000/svg">
<circle cx="172" cy="172" r="172" fill="#14284E" fill-opacity="0.92"/>
<path d="M197.488 201C189.733 201 183.3 199.778 178.191 197.333C173.082 194.979 169.25 191.855 166.695 187.961C164.232 183.977 163 179.767 163 175.33C163 170.35 164.505 165.415 167.516 160.526C170.527 155.546 174.998 151.29 180.928 147.759C186.95 144.137 194.294 141.874 202.962 140.968C201.685 139.248 200.727 137.301 200.088 135.128C199.449 132.864 199.13 130.736 199.13 128.744C199.221 123.945 200.59 119.735 203.236 116.113C205.882 112.401 209.257 109.277 213.363 106.742C217.56 104.206 222.031 102.305 226.775 101.037C231.519 99.6791 235.99 99 240.187 99C242.742 99 245.342 99.3622 247.988 100.087C250.634 100.72 252.869 101.897 254.694 103.618C256.519 105.338 257.431 107.783 257.431 110.952C257.431 113.578 256.61 115.932 254.967 118.015C253.325 120.097 251.318 121.138 248.946 121.138C247.212 121.138 245.707 120.505 244.43 119.237C243.152 117.969 242.514 116.521 242.514 114.891C242.514 112.989 243.107 111.45 244.293 110.273C245.57 109.005 247.121 108.372 248.946 108.372C249.767 108.372 250.679 108.643 251.683 109.186C252.778 109.73 253.462 110.273 253.736 110.816C253.827 110.454 253.873 109.956 253.873 109.322C253.873 106.877 252.869 105.157 250.862 104.161C248.855 103.165 246.71 102.667 244.43 102.667C240.78 102.667 236.537 103.573 231.702 105.383C226.866 107.104 222.168 109.956 217.606 113.94C215.963 115.389 214.276 117.29 212.542 119.644C210.808 121.999 209.349 124.534 208.163 127.25C206.977 129.876 206.383 132.547 206.383 135.264C206.383 137.346 206.748 139.157 207.478 140.696C208.847 140.696 210.398 140.651 212.131 140.561C213.956 140.379 215.827 140.289 217.743 140.289C220.115 140.289 221.985 140.787 223.354 141.783C224.722 142.779 225.407 143.911 225.407 145.178C225.407 146.084 224.859 146.944 223.764 147.759C222.669 148.574 220.936 148.981 218.564 148.981C215.553 148.981 212.816 148.348 210.352 147.08C207.98 145.722 206.11 144.364 204.741 143.005C198.72 143.82 193.61 146.039 189.413 149.66C185.216 153.282 182.023 157.583 179.833 162.563C177.644 167.453 176.549 172.342 176.549 177.232C176.549 181.125 177.279 184.747 178.738 188.097C180.29 191.447 182.616 194.119 185.718 196.111C188.82 198.193 192.743 199.234 197.488 199.234C202.415 199.234 206.885 198.329 210.9 196.518C215.005 194.798 218.518 192.534 221.438 189.727C224.357 186.92 226.593 183.977 228.144 180.899C229.786 177.73 230.607 174.787 230.607 172.071C230.607 169.716 229.74 167.77 228.007 166.23C226.364 164.601 224.175 163.423 221.438 162.699C218.701 161.884 215.781 161.477 212.679 161.477C209.486 161.477 206.292 161.929 203.099 162.835C199.997 163.65 197.351 164.963 195.161 166.774C192.972 168.494 191.649 170.712 191.192 173.429C191.192 173.61 191.147 173.836 191.056 174.108C191.056 174.289 191.056 174.47 191.056 174.651C191.056 176.643 191.785 178.635 193.245 180.627C194.796 182.529 197.168 184.294 200.362 185.924C201.183 186.286 201.593 186.965 201.593 187.961C201.593 188.957 201.137 189.229 200.225 188.776C195.207 186.15 191.512 183.298 189.14 180.22C186.859 177.051 185.718 174.063 185.718 171.256C185.718 167.181 187.908 163.695 192.287 160.798C196.758 157.81 203.099 156.316 211.31 156.316H235.534C236.994 156.316 239.138 155.999 241.966 155.365C244.886 154.731 247.851 153.826 250.862 152.648C253.873 151.381 256.427 149.932 258.526 148.302C260.715 146.582 261.81 144.635 261.81 142.462C261.81 141.285 261.4 140.017 260.579 138.659C260.396 138.387 260.305 138.071 260.305 137.708C260.305 137.165 260.533 136.893 260.989 136.893C261.354 136.893 261.673 137.12 261.947 137.573C263.316 139.565 264 141.602 264 143.684C264 146.129 263.088 148.393 261.263 150.475C259.529 152.558 257.157 154.414 254.146 156.044C251.136 157.583 247.76 158.76 244.019 159.575C240.369 160.39 236.629 160.752 232.797 160.662C234.53 162.111 235.808 163.74 236.629 165.551C237.45 167.362 237.86 169.264 237.86 171.256C237.86 174.606 236.857 178.047 234.85 181.578C232.842 185.019 230.014 188.233 226.365 191.221C222.715 194.118 218.427 196.473 213.5 198.284C208.664 200.095 203.327 201 197.488 201ZM218.564 146.672C221.575 146.672 223.08 146.084 223.08 144.907C223.08 144.454 222.669 144.001 221.848 143.549C221.118 143.005 220.115 142.688 218.837 142.598C218.29 142.507 217.378 142.462 216.1 142.462C214.823 142.462 213.454 142.462 211.995 142.462C210.626 142.462 209.486 142.462 208.573 142.462C210.854 145.269 214.184 146.672 218.564 146.672Z" fill="#A79168"/>
<path d="M102.864 163.776C98.4267 163.776 94.7573 163.157 91.856 161.92C88.9973 160.683 86.864 159.061 85.456 157.056C84.0907 155.051 83.408 152.917 83.408 150.656C83.408 148.096 84.0693 145.771 85.392 143.68C86.7147 141.589 88.4427 139.776 90.576 138.24C92.752 136.704 95.1413 135.488 97.744 134.592C100.347 133.696 102.907 133.184 105.424 133.056C103.205 132.245 101.392 131.136 99.984 129.728C98.6187 128.277 97.936 126.699 97.936 124.992C97.936 123.243 98.4693 121.579 99.536 120C100.645 118.379 102.117 116.907 103.952 115.584C105.787 114.219 107.856 113.045 110.16 112.064C112.507 111.083 114.939 110.336 117.456 109.824C119.973 109.269 122.405 108.992 124.752 108.992C128.549 108.992 131.579 109.632 133.84 110.912C136.101 112.192 137.232 113.835 137.232 115.84C137.232 117.675 136.229 119.488 134.224 121.28C132.261 123.072 129.531 124.352 126.032 125.12C125.349 125.248 124.901 125.312 124.688 125.312C124.219 125.312 123.984 125.12 123.984 124.736C123.984 124.608 124.048 124.523 124.176 124.48C124.347 124.395 124.688 124.267 125.2 124.096C127.717 123.243 129.723 122.048 131.216 120.512C132.709 118.933 133.456 117.269 133.456 115.52C133.456 114.027 132.731 112.832 131.28 111.936C129.872 110.997 127.739 110.528 124.88 110.528C122.32 110.528 119.739 110.891 117.136 111.616C114.533 112.341 112.144 113.365 109.968 114.688C107.792 116.011 106.043 117.525 104.72 119.232C103.397 120.939 102.736 122.795 102.736 124.8C102.736 126.251 103.163 127.424 104.016 128.32C104.869 129.216 105.957 129.941 107.28 130.496C108.603 131.008 109.968 131.435 111.376 131.776C112.827 132.075 114.149 132.416 115.344 132.8C115.771 132.928 116.048 133.099 116.176 133.312C116.304 133.525 116.368 133.739 116.368 133.952C116.368 134.507 116.048 134.976 115.408 135.36C114.811 135.744 113.957 135.936 112.848 135.936C112.165 135.936 111.397 135.936 110.544 135.936C109.733 135.893 108.859 135.872 107.92 135.872C106.597 135.872 105.189 135.936 103.696 136.064C102.245 136.192 100.645 136.533 98.896 137.088C96.6773 137.771 94.736 138.837 93.072 140.288C91.4507 141.739 90.192 143.339 89.296 145.088C88.4 146.837 87.952 148.565 87.952 150.272C87.952 152.491 88.464 154.496 89.488 156.288C90.512 158.08 92.1333 159.488 94.352 160.512C96.5707 161.579 99.4933 162.112 103.12 162.112C106.448 162.112 109.669 161.685 112.784 160.832C115.899 159.979 118.779 158.891 121.424 157.568C124.069 156.203 126.331 154.795 128.208 153.344C129.744 152.107 130.981 150.848 131.92 149.568C132.901 148.288 133.392 147.179 133.392 146.24C133.392 145.045 132.56 144.32 130.896 144.064C130.469 144.021 130.256 143.893 130.256 143.68C130.256 143.339 130.555 143.168 131.152 143.168C132.389 143.168 133.477 143.595 134.416 144.448C135.397 145.259 135.888 146.283 135.888 147.52C135.888 149.952 134.16 152.512 130.704 155.2C128.613 156.864 126.053 158.336 123.024 159.616C120.037 160.896 116.795 161.899 113.296 162.624C109.84 163.392 106.363 163.776 102.864 163.776ZM155.558 144.192C155.558 145.472 155.216 147.008 154.534 148.8C153.851 150.592 152.891 152.341 151.654 154.048C150.416 155.755 148.944 157.184 147.238 158.336C145.574 159.445 143.76 160 141.798 160C140.091 160 138.832 159.488 138.022 158.464C137.211 157.44 136.806 156.139 136.806 154.56C136.806 153.323 137.04 151.915 137.51 150.336C138.022 148.757 138.683 146.923 139.494 144.832C139.707 144.32 140.134 143.403 140.774 142.08C141.456 140.715 142.288 139.136 143.27 137.344C144.251 135.509 145.296 133.611 146.406 131.648C147.558 129.685 148.71 127.829 149.862 126.08C151.056 124.288 152.187 122.795 153.253 121.6C156.027 118.315 158.736 115.755 161.382 113.92C164.027 112.043 166.566 111.104 168.998 111.104C170.448 111.104 171.558 111.467 172.326 112.192C173.136 112.875 173.542 113.792 173.542 114.944C173.542 116.523 172.816 118.443 171.366 120.704C169.915 122.923 167.739 125.227 164.838 127.616C162.96 129.28 160.678 130.859 157.99 132.352C155.302 133.845 151.782 135.253 147.43 136.576C145.979 139.221 144.699 141.781 143.59 144.256C142.48 146.688 141.606 148.907 140.966 150.912C140.326 152.875 140.006 154.453 140.006 155.648C140.006 156.288 140.07 156.864 140.198 157.376C140.283 157.717 140.475 158.037 140.774 158.336C141.115 158.592 141.52 158.72 141.99 158.72C142.587 158.72 143.27 158.485 144.038 158.016C144.848 157.547 145.744 156.715 146.726 155.52C147.323 154.795 147.942 153.92 148.582 152.896C149.222 151.872 149.819 150.827 150.374 149.76C150.928 148.651 151.376 147.669 151.718 146.816C152.443 145.109 152.806 143.552 152.806 142.144C152.806 140.779 152.486 139.883 151.846 139.456C151.248 139.029 150.331 138.816 149.094 138.816C148.326 138.816 147.942 138.603 147.942 138.176C147.942 138.005 148.048 137.835 148.262 137.664C148.518 137.493 148.859 137.408 149.286 137.408C150.907 137.408 152.358 138.005 153.638 139.2C154.918 140.395 155.558 142.059 155.558 144.192ZM168.998 113.216C167.547 113.216 165.947 113.835 164.198 115.072C162.448 116.267 160.656 117.909 158.822 120C156.987 122.091 155.174 124.437 153.382 127.04C151.59 129.6 149.904 132.245 148.326 134.976C151.952 133.781 155.003 132.459 157.478 131.008C159.995 129.557 162.15 128.043 163.942 126.464C166.459 124.373 168.336 122.368 169.574 120.448C170.811 118.485 171.43 116.885 171.43 115.648C171.43 114.923 171.216 114.347 170.79 113.92C170.406 113.451 169.808 113.216 168.998 113.216ZM161.797 160.512C161.2 160.512 160.517 160.363 159.749 160.064C159.024 159.808 158.405 159.36 157.893 158.72C157.381 158.08 157.125 157.248 157.125 156.224C157.125 155.029 157.466 153.899 158.149 152.832C158.832 151.765 159.685 150.741 160.709 149.76C161.733 148.736 162.736 147.776 163.717 146.88C164.741 145.941 165.594 145.045 166.277 144.192C166.96 143.296 167.301 142.421 167.301 141.568C167.301 140.843 167.109 140.267 166.725 139.84C166.341 139.371 165.658 139.136 164.677 139.136C163.354 139.136 161.989 139.712 160.581 140.864C159.216 142.016 157.936 143.509 156.741 145.344C155.504 147.136 154.437 149.013 153.541 150.976L152.773 150.4C153.285 149.035 153.968 147.627 154.821 146.176C155.674 144.683 156.656 143.296 157.765 142.016C158.917 140.693 160.176 139.627 161.541 138.816C162.906 138.005 164.357 137.6 165.893 137.6C167.386 137.6 168.496 137.963 169.221 138.688C169.946 139.371 170.266 140.309 170.181 141.504C170.096 142.827 169.69 144.064 168.965 145.216C168.282 146.368 167.45 147.456 166.469 148.48C165.488 149.504 164.506 150.485 163.525 151.424C162.544 152.363 161.733 153.28 161.093 154.176C160.453 155.072 160.133 155.989 160.133 156.928C160.133 157.696 160.432 158.251 161.029 158.592C161.669 158.891 162.245 159.04 162.757 159.04C163.738 159.04 164.741 158.635 165.765 157.824C166.789 157.013 167.77 156.011 168.709 154.816C169.648 153.579 170.501 152.32 171.269 151.04C172.037 149.76 172.634 148.629 173.061 147.648C173.658 147.648 173.914 147.84 173.829 148.224C171.866 152.107 169.904 155.136 167.941 157.312C165.978 159.445 163.93 160.512 161.797 160.512ZM177.697 160.256C176.118 160.256 174.689 159.744 173.409 158.72C172.171 157.696 171.553 156.139 171.553 154.048C171.553 152.299 171.937 150.443 172.705 148.48C173.515 146.517 174.561 144.683 175.841 142.976C177.163 141.227 178.614 139.819 180.193 138.752C181.814 137.643 183.435 137.088 185.057 137.088C185.867 137.088 186.657 137.323 187.425 137.792C188.193 138.261 188.577 139.072 188.577 140.224C188.577 141.291 188.171 142.464 187.361 143.744C186.55 145.024 185.398 146.219 183.905 147.328C183.265 147.797 182.454 148.245 181.473 148.672C180.491 149.099 179.51 149.461 178.529 149.76C177.547 150.016 176.737 150.144 176.097 150.144C175.883 150.656 175.67 151.339 175.457 152.192C175.286 153.045 175.201 153.92 175.201 154.816C175.201 155.883 175.414 156.843 175.841 157.696C176.267 158.549 177.057 158.976 178.209 158.976C179.617 158.976 180.918 158.571 182.113 157.76C183.35 156.949 184.438 155.925 185.377 154.688C186.358 153.451 187.19 152.192 187.873 150.912C188.555 149.632 189.089 148.544 189.473 147.648C189.985 147.648 190.241 147.84 190.241 148.224C189.686 149.419 189.046 150.72 188.321 152.128C187.638 153.536 186.806 154.859 185.825 156.096C184.886 157.291 183.734 158.293 182.369 159.104C181.046 159.872 179.489 160.256 177.697 160.256ZM176.545 148.992C177.142 148.992 178.145 148.779 179.553 148.352C180.961 147.883 182.241 147.157 183.393 146.176C184.502 145.195 185.355 144.128 185.953 142.976C186.55 141.781 186.849 140.779 186.849 139.968C186.849 139.029 186.507 138.56 185.825 138.56C185.313 138.56 184.609 138.901 183.713 139.584C182.817 140.267 181.707 141.419 180.385 143.04C179.574 144.064 178.806 145.173 178.081 146.368C177.355 147.563 176.843 148.437 176.545 148.992ZM188.952 159.04C188.909 159.467 188.653 159.765 188.184 159.936C187.757 160.064 187.33 160.128 186.904 160.128C186.221 160.128 185.709 160.235 185.367 160.448C185.367 159.595 185.602 158.4 186.072 156.864C186.541 155.285 187.096 153.6 187.736 151.808C188.418 149.973 189.101 148.267 189.784 146.688C190.509 145.067 191.106 143.808 191.576 142.912C192.6 141.035 193.453 139.84 194.135 139.328C194.861 138.816 195.693 138.56 196.632 138.56C197.485 138.56 198.082 138.603 198.424 138.688C198.808 138.731 199.085 138.752 199.256 138.752C198.317 139.264 197.208 140.459 195.928 142.336C194.69 144.213 193.517 146.304 192.408 148.608C192.749 148.267 193.133 147.989 193.56 147.776C194.029 147.563 194.562 147.456 195.16 147.456C195.97 147.456 196.674 147.605 197.272 147.904C197.869 148.16 198.701 148.288 199.768 148.288C200.578 148.288 201.112 148.032 201.368 147.52C202.05 145.984 202.754 144.491 203.48 143.04C204.205 141.547 204.802 140.309 205.272 139.328C205.528 138.773 205.869 138.411 206.296 138.24C206.765 138.069 207.277 137.984 207.832 137.984H211.288C210.562 138.581 209.944 139.136 209.432 139.648C208.962 140.117 208.493 140.693 208.024 141.376C207.597 142.059 207.042 143.04 206.36 144.32C205.805 145.387 205.144 146.773 204.376 148.48C203.608 150.187 203.032 151.701 202.648 153.024C202.477 153.493 202.328 154.048 202.2 154.688C202.114 155.328 202.072 155.925 202.072 156.48C202.072 157.163 202.178 157.739 202.392 158.208C202.605 158.677 202.968 158.912 203.48 158.912C204.29 158.912 205.122 158.571 205.976 157.888C206.829 157.163 207.661 156.245 208.472 155.136C209.282 153.984 210.029 152.747 210.712 151.424C211.437 150.101 212.056 148.843 212.568 147.648C212.909 147.648 213.122 147.691 213.208 147.776C213.293 147.861 213.336 148.011 213.336 148.224C212.824 149.504 212.184 150.869 211.416 152.32C210.69 153.728 209.837 155.051 208.856 156.288C207.917 157.525 206.872 158.549 205.72 159.36C204.61 160.128 203.416 160.512 202.135 160.512C200.856 160.512 199.938 160.128 199.384 159.36C198.872 158.592 198.616 157.632 198.616 156.48C198.616 155.883 198.68 155.243 198.808 154.56C198.978 153.877 199.17 153.195 199.384 152.512C199.554 152 199.746 151.467 199.96 150.912C200.173 150.315 200.408 149.739 200.664 149.184C200.408 149.525 200.088 149.803 199.704 150.016C199.32 150.187 198.829 150.272 198.232 150.272C197.634 150.272 197.144 150.187 196.76 150.016C196.376 149.845 195.97 149.675 195.544 149.504C195.117 149.333 194.562 149.248 193.88 149.248C193.453 149.248 193.005 149.333 192.536 149.504C192.109 149.675 191.768 150.059 191.512 150.656C190.872 152.149 190.317 153.621 189.848 155.072C189.421 156.523 189.122 157.845 188.952 159.04ZM223.149 151.744C222.423 153.024 221.591 154.304 220.653 155.584C219.714 156.864 218.711 157.931 217.645 158.784C216.578 159.595 215.511 160 214.445 160C213.975 160 213.399 159.893 212.717 159.68C212.077 159.467 211.501 159.083 210.989 158.528C210.519 157.931 210.285 157.056 210.285 155.904C210.285 154.795 210.647 153.515 211.373 152.064C212.098 150.613 212.738 149.333 213.293 148.224C212.823 148.224 212.589 148.032 212.589 147.648C212.631 147.52 212.823 147.115 213.165 146.432C213.506 145.749 213.911 144.939 214.381 144C214.85 143.061 215.298 142.165 215.725 141.312C216.194 140.416 216.557 139.733 216.812 139.264C217.325 138.325 218.135 137.856 219.245 137.856H223.213C222.487 138.411 221.826 139.029 221.229 139.712C220.674 140.352 219.97 141.547 219.117 143.296C219.117 143.296 218.967 143.595 218.669 144.192C218.37 144.789 217.986 145.557 217.517 146.496C217.09 147.392 216.642 148.309 216.173 149.248C215.746 150.187 215.383 150.976 215.085 151.616C214.53 152.811 214.167 153.771 213.997 154.496C213.826 155.179 213.741 155.819 213.741 156.416C213.741 157.824 214.21 158.528 215.149 158.528C216.173 158.528 217.41 157.696 218.861 156.032C220.055 154.624 221.229 152.939 222.381 150.976C223.533 149.013 224.621 146.987 225.645 144.896C226.711 142.805 227.65 140.928 228.461 139.264C228.93 138.325 229.762 137.856 230.957 137.856H234.477C233.837 138.368 233.303 138.859 232.877 139.328C232.493 139.797 232.087 140.395 231.661 141.12C231.234 141.845 230.658 142.891 229.933 144.256C228.226 147.371 226.989 150.016 226.221 152.192C226.05 152.747 225.879 153.387 225.708 154.112C225.581 154.837 225.517 155.541 225.517 156.224C225.517 157.035 225.687 157.803 226.029 158.528C226.413 159.211 226.989 159.659 227.757 159.872C228.439 160.043 228.781 160.149 228.781 160.192C228.781 160.32 228.631 160.405 228.333 160.448C228.077 160.491 227.799 160.512 227.501 160.512C226.349 160.512 225.239 160.107 224.173 159.296C223.149 158.443 222.637 157.099 222.637 155.264C222.637 154.667 222.679 154.069 222.765 153.472C222.893 152.832 223.021 152.256 223.149 151.744ZM236.32 160C235.85 160 235.274 159.893 234.592 159.68C233.952 159.467 233.376 159.083 232.864 158.528C232.394 157.931 232.16 157.056 232.16 155.904C232.16 154.795 232.394 153.493 232.864 152C233.333 150.507 233.909 148.949 234.592 147.328C235.317 145.707 236.042 144.192 236.768 142.784C237.536 141.333 238.176 140.16 238.688 139.264C239.2 138.325 240.01 137.856 241.12 137.856H245.088C244.618 138.24 244.149 138.645 243.68 139.072C243.21 139.499 242.677 140.139 242.08 140.992C241.525 141.845 240.8 143.104 239.904 144.768C239.52 145.451 239.093 146.347 238.624 147.456C238.154 148.523 237.685 149.632 237.216 150.784C236.746 151.936 236.362 153.024 236.064 154.048C235.765 155.029 235.616 155.819 235.616 156.416C235.616 157.824 236.085 158.528 237.024 158.528C238.048 158.528 239.285 157.696 240.736 156.032C241.93 154.624 243.104 152.939 244.256 150.976C245.408 149.013 246.496 146.987 247.52 144.896C248.586 142.805 249.525 140.928 250.336 139.264C250.805 138.325 251.637 137.856 252.832 137.856H256.352C255.413 138.624 254.453 139.776 253.472 141.312C252.533 142.848 251.488 144.811 250.336 147.2C250.037 147.84 249.653 148.651 249.184 149.632C248.714 150.613 248.288 151.659 247.904 152.768C247.562 153.877 247.392 154.987 247.392 156.096C247.392 157.589 247.925 158.336 248.992 158.336C250.442 158.336 251.85 157.333 253.216 155.328C254.581 153.323 255.925 150.763 257.248 147.648C257.589 147.648 257.781 147.669 257.824 147.712C257.909 147.755 257.973 147.925 258.016 148.224C257.546 149.376 256.97 150.635 256.288 152C255.648 153.323 254.901 154.603 254.048 155.84C253.237 157.077 252.32 158.08 251.296 158.848C250.314 159.616 249.226 160 248.032 160C246.965 160 246.09 159.616 245.408 158.848C244.725 158.037 244.384 156.907 244.384 155.456C244.384 154.304 244.597 153.067 245.024 151.744C244.298 153.024 243.466 154.304 242.528 155.584C241.589 156.864 240.586 157.931 239.52 158.784C238.453 159.595 237.386 160 236.32 160ZM256.288 127.936C256.714 127.893 256.97 128 257.056 128.256C257.141 128.512 257.184 128.725 257.184 128.896C256.501 130.091 255.477 131.2 254.112 132.224C252.789 133.205 251.232 133.696 249.44 133.696C247.776 133.696 246.41 133.227 245.344 132.288C244.277 131.307 243.744 130.155 243.744 128.832C243.744 127.851 244 127.019 244.512 126.336C245.066 125.653 245.77 125.312 246.624 125.312C247.306 125.312 247.776 125.504 248.032 125.888C248.33 126.272 248.48 126.635 248.48 126.976C248.48 127.445 248.288 127.829 247.904 128.128C247.136 128.555 246.752 129.152 246.752 129.92C246.752 130.603 246.965 131.179 247.392 131.648C247.861 132.117 248.629 132.352 249.696 132.352C251.061 132.352 252.341 131.947 253.536 131.136C254.73 130.325 255.648 129.259 256.288 127.936ZM129.616 231.6C129.829 228.997 130.235 226.096 130.832 222.896C131.472 219.653 132.197 216.347 133.008 212.976C133.861 209.563 134.779 206.235 135.76 202.992C136.784 199.749 137.808 196.763 138.832 194.032C139.899 191.301 140.923 189.019 141.904 187.184C139.813 188.891 137.765 190.981 135.76 193.456C133.755 195.888 131.813 198.512 129.936 201.328C128.101 204.101 126.352 206.853 124.688 209.584C123.067 212.272 121.595 214.747 120.272 217.008C118.949 219.269 117.819 221.104 116.88 222.512C116.197 223.536 115.344 224.816 114.32 226.352C113.296 227.888 112.101 229.509 110.736 231.216C109.371 232.923 107.813 234.523 106.064 236.016C104.357 237.509 102.459 238.725 100.368 239.664C98.2773 240.603 95.9947 241.072 93.52 241.072C91.0027 241.072 88.8907 240.517 87.184 239.408C85.4773 238.341 84.176 236.933 83.28 235.184C82.4267 233.435 82 231.6 82 229.68C82 227.675 82.4267 225.733 83.28 223.856C84.1333 221.936 85.264 220.165 86.672 218.544C88.1227 216.923 89.744 215.557 91.536 214.448C93.3707 213.339 95.248 212.571 97.168 212.144C97.3387 212.101 97.488 212.08 97.616 212.08C97.9147 212.08 98.064 212.208 98.064 212.464C98.064 212.592 97.8293 212.784 97.36 213.04C93.7333 215.003 91.024 217.477 89.232 220.464C87.44 223.451 86.544 226.395 86.544 229.296C86.544 230.917 86.9067 232.411 87.632 233.776C88.3573 235.141 89.36 236.208 90.64 236.976C91.92 237.787 93.392 238.192 95.056 238.192C97.3173 238.192 99.3867 237.68 101.264 236.656C103.141 235.675 104.869 234.352 106.448 232.688C108.027 231.067 109.52 229.296 110.928 227.376C112.379 225.413 113.765 223.493 115.088 221.616C115.941 220.464 116.965 218.907 118.16 216.944C119.355 214.939 120.699 212.72 122.192 210.288C123.728 207.813 125.349 205.275 127.056 202.672C128.805 200.069 130.619 197.552 132.496 195.12C134.373 192.688 136.272 190.491 138.192 188.528C140.155 186.565 142.117 185.008 144.08 183.856C144.549 183.557 144.976 183.344 145.36 183.216C145.787 183.088 146.384 183.024 147.152 183.024C147.664 183.024 147.856 183.195 147.728 183.536C147.6 183.835 147.387 184.197 147.088 184.624C146.107 186.117 145.083 188.123 144.016 190.64C142.992 193.115 141.968 195.931 140.944 199.088C139.963 202.245 139.024 205.531 138.128 208.944C137.232 212.357 136.421 215.771 135.696 219.184C134.971 222.555 134.395 225.691 133.968 228.592C138.064 221.211 142.16 214.512 146.256 208.496C150.395 202.48 154.448 197.296 158.416 192.944C162.427 188.592 166.288 185.221 170 182.832C170.597 182.192 171.429 181.467 172.496 180.656C173.563 179.845 174.587 179.44 175.568 179.44C176.165 179.44 176.656 179.611 177.04 179.952C177.467 180.251 177.68 180.635 177.68 181.104C177.68 181.573 177.381 182.107 176.784 182.704C176.229 183.259 175.419 183.707 174.352 184.048C174.053 184.133 173.712 184.24 173.328 184.368C172.987 184.453 172.603 184.539 172.176 184.624C170.384 187.312 168.4 190.789 166.224 195.056C164.091 199.28 162.128 203.973 160.336 209.136C159.355 211.995 158.416 214.939 157.52 217.968C156.667 220.955 156.24 223.728 156.24 226.288C156.24 227.227 156.411 228.123 156.752 228.976C157.093 229.829 157.733 230.256 158.672 230.256C159.781 230.256 160.997 229.659 162.32 228.464C163.643 227.227 164.944 225.648 166.224 223.728C167.504 221.808 168.571 219.781 169.424 217.648C169.936 217.648 170.192 217.84 170.192 218.224C169.168 220.571 167.952 222.853 166.544 225.072C165.179 227.291 163.664 229.104 162 230.512C160.379 231.963 158.672 232.688 156.88 232.688C155.472 232.688 154.32 232.176 153.424 231.152C152.571 230.128 152.144 228.613 152.144 226.608C152.144 224.901 152.421 222.811 152.976 220.336C153.573 217.819 154.363 215.109 155.344 212.208C156.368 209.264 157.477 206.299 158.672 203.312C160.208 199.6 161.701 196.357 163.152 193.584C164.603 190.768 165.947 188.421 167.184 186.544C163.643 189.36 159.995 193.072 156.24 197.68C152.528 202.245 148.795 207.493 145.04 213.424C141.285 219.355 137.552 225.776 133.84 232.688C133.499 233.328 132.965 233.691 132.24 233.776C131.557 233.904 130.939 233.776 130.384 233.392C129.829 233.051 129.573 232.453 129.616 231.6ZM183.227 230.192C182.245 230.192 181.371 229.915 180.603 229.36C179.877 228.805 179.515 227.675 179.515 225.968C179.515 225.243 179.557 224.56 179.643 223.92C179.771 223.28 179.92 222.597 180.091 221.872C179.707 222.512 179.173 223.301 178.491 224.24C177.808 225.179 177.04 226.096 176.187 226.992C175.376 227.888 174.523 228.635 173.627 229.232C172.773 229.829 171.963 230.128 171.195 230.128C170.085 230.128 169.189 229.637 168.507 228.656C167.824 227.632 167.483 226.309 167.483 224.688C167.483 222.939 167.888 221.061 168.699 219.056C169.509 217.051 170.619 215.131 172.027 213.296C173.435 211.461 175.056 209.968 176.891 208.816C178.725 207.664 180.645 207.088 182.651 207.088C183.632 207.088 184.571 207.259 185.467 207.6C186.363 207.899 187.152 208.411 187.835 209.136C188.133 209.435 188.283 209.776 188.283 210.16C188.283 210.416 188.176 210.629 187.963 210.8C187.749 210.971 187.472 211.013 187.131 210.928C186.661 209.435 185.659 208.688 184.123 208.688C183.397 208.688 182.565 208.923 181.627 209.392C180.475 209.989 179.237 210.949 177.915 212.272C176.635 213.552 175.419 215.024 174.267 216.688C173.157 218.309 172.24 219.952 171.515 221.616C170.789 223.28 170.427 224.795 170.427 226.16C170.427 227.568 170.96 228.272 172.027 228.272C172.965 228.272 173.925 227.824 174.907 226.928C175.931 226.032 176.891 224.923 177.787 223.6C178.725 222.235 179.579 220.891 180.347 219.568C181.115 218.245 181.712 217.179 182.139 216.368C182.779 215.216 183.376 214.256 183.931 213.488C184.485 212.72 185.275 212.336 186.299 212.336C186.768 212.336 187.237 212.4 187.707 212.528C188.176 212.656 188.667 212.677 189.179 212.592C187.899 213.872 186.768 215.387 185.787 217.136C184.848 218.885 184.123 220.613 183.611 222.32C183.099 223.984 182.843 225.392 182.843 226.544C182.843 227.824 183.269 228.464 184.123 228.464C184.805 228.464 185.531 228.08 186.299 227.312C187.109 226.544 187.877 225.584 188.603 224.432C189.371 223.237 190.075 222.043 190.715 220.848C191.355 219.611 191.867 218.544 192.251 217.648C192.464 217.648 192.635 217.669 192.763 217.712C192.933 217.755 193.019 217.925 193.019 218.224C192.976 218.395 192.891 218.587 192.763 218.8C192.677 218.971 192.528 219.291 192.315 219.76C191.973 220.443 191.504 221.36 190.907 222.512C190.309 223.664 189.605 224.837 188.795 226.032C187.984 227.184 187.109 228.165 186.171 228.976C185.232 229.787 184.251 230.192 183.227 230.192ZM182.228 247.472C181.716 247.472 181.289 247.408 180.948 247.28C180.564 247.195 180.073 247.152 179.476 247.152C179.647 246.896 180.073 246.149 180.756 244.912C181.396 243.717 182.185 242.203 183.124 240.368C184.063 238.576 185.065 236.613 186.132 234.48C187.156 232.389 188.159 230.32 189.14 228.272C190.121 226.181 190.953 224.261 191.636 222.512C192.361 220.72 192.831 219.291 193.044 218.224C192.831 218.224 192.639 218.181 192.468 218.096C192.297 218.011 192.233 217.861 192.276 217.648C192.276 217.648 192.404 217.264 192.66 216.496C192.916 215.728 193.172 214.811 193.428 213.744C193.684 212.635 193.812 211.632 193.812 210.736C193.812 210.139 193.748 209.627 193.62 209.2C193.492 208.773 193.257 208.539 192.916 208.496L196.116 207.984C196.372 207.941 196.607 207.92 196.82 207.92C197.033 207.877 197.225 207.856 197.396 207.856C197.78 207.856 198.036 208.005 198.164 208.304C198.335 208.56 198.42 209.115 198.42 209.968C198.42 211.035 198.228 212.4 197.844 214.064C197.503 215.685 197.097 217.115 196.628 218.352C197.097 217.584 197.695 216.603 198.42 215.408C199.188 214.213 200.063 212.997 201.044 211.76C202.025 210.523 203.049 209.499 204.116 208.688C205.183 207.835 206.228 207.408 207.252 207.408C207.465 207.408 207.743 207.451 208.084 207.536C209.279 207.835 210.111 208.432 210.58 209.328C211.092 210.181 211.348 211.205 211.348 212.4C211.348 213.68 211.092 215.088 210.58 216.624C210.111 218.16 209.471 219.675 208.66 221.168C207.849 222.619 206.953 223.941 205.972 225.136C204.777 226.629 203.348 227.824 201.684 228.72C200.02 229.616 198.313 230.064 196.564 230.064C194.985 230.064 193.513 229.659 192.148 228.848L185.94 244.144C185.343 245.595 184.745 246.512 184.148 246.896C183.551 247.28 182.911 247.472 182.228 247.472ZM194.516 228.72C195.711 228.72 197.055 228.165 198.548 227.056C200.041 225.947 201.471 224.539 202.836 222.832C204.244 221.083 205.417 219.333 206.356 217.584C206.996 216.389 207.465 215.301 207.764 214.32C208.063 213.296 208.212 212.421 208.212 211.696C208.212 210.032 207.615 209.2 206.42 209.2C205.865 209.2 205.14 209.499 204.244 210.096C203.391 210.693 202.388 211.781 201.236 213.36C199.999 215.067 198.633 217.221 197.14 219.824C195.689 222.384 194.196 225.093 192.66 227.952C193.172 228.464 193.791 228.72 194.516 228.72ZM216.336 228.528C217.36 228.528 218.597 227.696 220.048 226.032C221.243 224.624 222.416 222.939 223.568 220.976C224.72 219.013 225.808 216.987 226.832 214.896C227.899 212.805 228.837 210.928 229.648 209.264C230.117 208.325 230.949 207.856 232.144 207.856H235.664C234.725 208.624 233.765 209.776 232.784 211.312C231.845 212.848 230.8 214.811 229.648 217.2C229.349 217.84 228.965 218.651 228.496 219.632C228.027 220.613 227.6 221.659 227.216 222.768C226.875 223.877 226.704 224.987 226.704 226.096C226.704 227.589 227.237 228.336 228.304 228.336C229.285 228.336 230.267 227.845 231.248 226.864C232.229 225.84 233.189 224.475 234.128 222.768C234.683 222.768 234.96 222.939 234.96 223.28C234.021 225.029 232.912 226.587 231.632 227.952C230.395 229.317 228.965 230 227.344 230C226.277 230 225.403 229.616 224.72 228.848C224.037 228.037 223.696 226.907 223.696 225.456C223.696 224.304 223.909 223.067 224.336 221.744C223.611 223.024 222.779 224.304 221.84 225.584C220.901 226.864 219.899 227.931 218.832 228.784C217.765 229.595 216.699 230 215.632 230C215.163 230 214.587 229.893 213.904 229.68C213.264 229.467 212.688 229.083 212.176 228.528C211.707 227.931 211.472 227.056 211.472 225.904C211.472 224.795 211.707 223.493 212.176 222C212.645 220.507 213.221 218.949 213.904 217.328C214.629 215.707 215.355 214.192 216.08 212.784C216.848 211.333 217.488 210.16 218 209.264C218.512 208.325 219.323 207.856 220.432 207.856H224.4C223.931 208.24 223.461 208.645 222.992 209.072C222.523 209.499 221.989 210.139 221.392 210.992C220.837 211.845 220.112 213.104 219.216 214.768C218.832 215.451 218.405 216.347 217.936 217.456C217.467 218.523 216.997 219.632 216.528 220.784C216.059 221.936 215.675 223.024 215.376 224.048C215.077 225.029 214.928 225.819 214.928 226.416C214.928 227.824 215.397 228.528 216.336 228.528ZM236.845 229.04C237.57 229.04 238.466 228.635 239.533 227.824C240.642 226.971 241.794 225.904 242.989 224.624C244.183 223.301 245.293 221.915 246.317 220.464C245.805 220.592 245.271 220.656 244.717 220.656C243.181 220.656 242.05 220.251 241.325 219.44C240.642 218.629 240.301 217.627 240.301 216.432C240.301 215.152 240.663 213.829 241.389 212.464C242.114 211.056 243.117 209.883 244.397 208.944C245.719 208.005 247.191 207.536 248.812 207.536C250.946 207.536 252.226 208.453 252.653 210.288C252.781 209.947 252.93 209.627 253.101 209.328C253.357 208.816 253.698 208.475 254.125 208.304C254.551 208.091 255.063 207.984 255.661 207.984H259.117C258.733 208.283 258.007 208.987 256.941 210.096C255.917 211.163 254.722 213.083 253.357 215.856C252.887 216.795 252.375 217.904 251.821 219.184C251.266 220.464 250.797 221.765 250.413 223.088C250.029 224.411 249.837 225.584 249.837 226.608C249.837 228.016 250.327 228.72 251.309 228.72C252.119 228.72 252.93 228.357 253.741 227.632C254.594 226.864 255.405 225.904 256.173 224.752C256.983 223.6 257.73 222.405 258.413 221.168C259.095 219.888 259.65 218.715 260.077 217.648C260.589 217.648 260.845 217.84 260.845 218.224C260.375 219.333 259.778 220.592 259.053 222C258.37 223.408 257.559 224.773 256.621 226.096C255.682 227.376 254.637 228.443 253.485 229.296C252.375 230.107 251.138 230.512 249.773 230.512C248.578 230.512 247.725 230.171 247.213 229.488C246.743 228.805 246.509 227.909 246.509 226.8C246.509 225.733 246.679 224.581 247.021 223.344C247.362 222.107 247.767 220.891 248.237 219.696V219.76C246.957 221.509 245.634 223.195 244.269 224.816C242.903 226.437 241.517 227.781 240.109 228.848C238.701 229.915 237.357 230.448 236.077 230.448C234.839 230.448 233.879 230.085 233.197 229.36C232.514 228.635 232.172 227.717 232.172 226.608C232.172 225.755 232.386 224.944 232.812 224.176C233.239 223.408 233.773 222.768 234.413 222.256C235.053 221.744 235.714 221.488 236.397 221.488C236.695 221.488 236.973 221.531 237.229 221.616C237.527 221.701 237.805 221.851 238.061 222.064C237.25 222.747 236.631 223.579 236.205 224.56C235.778 225.541 235.565 226.395 235.565 227.12C235.565 227.632 235.65 228.08 235.821 228.464C236.034 228.848 236.375 229.04 236.845 229.04ZM245.357 219.696C246.423 219.696 247.362 219.269 248.173 218.416C248.983 217.52 249.623 216.432 250.093 215.152C250.605 213.829 250.861 212.571 250.861 211.376C250.861 209.541 250.306 208.624 249.197 208.624C248.514 208.624 247.831 208.923 247.149 209.52C246.466 210.075 245.826 210.821 245.229 211.76C244.631 212.656 244.141 213.595 243.757 214.576C243.415 215.557 243.245 216.453 243.245 217.264C243.245 217.947 243.394 218.523 243.693 218.992C244.034 219.461 244.589 219.696 245.357 219.696Z" fill="white"/>
</svg>
